<svg width="28" height="28" viewBox="0 0 28 28" fill="none" xmlns="http://www.w3.org/2000/svg">
<g id="twitter 1" clip-path="url(#clip0_4_301)">
<g id="Layer 2">
<g id="twitter">
<path id="Vector" d="M9.42662 23.3333C11.1518 23.391 12.871 23.1023 14.4827 22.4843C16.0943 21.8663 17.5658 20.9315 18.81 19.7351C20.0542 18.5387 21.046 17.105 21.7268 15.5188C22.4075 13.9326 22.7633 12.2261 22.7733 10.5C23.5639 9.52162 24.1509 8.3951 24.5 7.18664C24.526 7.09116 24.5239 6.99018 24.4939 6.89587C24.4639 6.80156 24.4073 6.71794 24.3308 6.65506C24.2544 6.59219 24.1614 6.55275 24.0631 6.5415C23.9648 6.53025 23.8653 6.54766 23.7766 6.59164C23.363 6.79073 22.8974 6.85504 22.4453 6.77551C21.9932 6.69598 21.5774 6.47661 21.2566 6.1483C20.8471 5.69981 20.3517 5.33809 19.7997 5.08457C19.2478 4.83105 18.6506 4.69089 18.0436 4.67239C17.4365 4.6539 16.8319 4.75744 16.2656 4.9769C15.6992 5.19635 15.1827 5.52724 14.7466 5.94997C14.1495 6.52824 13.7122 7.25114 13.4771 8.04842C13.242 8.84571 13.2171 9.69025 13.405 10.5C9.49662 10.7333 6.81329 8.8783 4.66662 6.33497C4.60213 6.26194 4.51777 6.20927 4.42384 6.18338C4.32991 6.1575 4.23048 6.15953 4.13769 6.18923C4.04489 6.21892 3.96275 6.275 3.9013 6.3506C3.83984 6.4262 3.80173 6.51807 3.79162 6.61497C3.38267 8.88346 3.67767 11.2228 4.63701 13.3187C5.59635 15.4147 7.17408 17.1669 9.15829 18.34C7.82787 19.8658 5.95953 20.8187 3.94329 21C3.83527 21.0179 3.73556 21.0691 3.6581 21.1465C3.58064 21.2239 3.52933 21.3236 3.51132 21.4316C3.49332 21.5396 3.50954 21.6505 3.55771 21.7489C3.60588 21.8472 3.68359 21.928 3.77996 21.98C5.53406 22.8566 7.46573 23.3195 9.42662 23.3333Z" fill="#3D6177"/>
</g>
</g>
</g>
<defs>
<clipPath id="clip0_4_301">
<rect width="28" height="28" fill="white"/>
</clipPath>
</defs>
</svg>
